<svg width="20" height="20" viewBox="0 0 20 20" fill="none" xmlns="http://www.w3.org/2000/svg">
<ellipse cx="5.00065" cy="3.33332" rx="1.66667" ry="1.66667" fill="#2563EB" stroke="#2563EB" stroke-width="1.5"/>
<ellipse opacity="0.4" cx="5" cy="6.66667" rx="2.5" ry="1.66667" fill="#2563EB"/>
<circle cx="15.0007" cy="13.3333" r="1.66667" fill="#2563EB"/>
<path fill-rule="evenodd" clip-rule="evenodd" d="M9.37435 1.66666C9.37435 1.32148 9.65417 1.04166 9.99935 1.04166C14.9469 1.04166 18.9577 5.05244 18.9577 9.99999C18.9577 10.3452 18.6779 10.625 18.3327 10.625C17.9875 10.625 17.7077 10.3452 17.7077 9.99999C17.7077 5.74279 14.2565 2.29166 9.99935 2.29166C9.65417 2.29166 9.37435 2.01183 9.37435 1.66666ZM1.66602 9.37499C2.01119 9.37499 2.29102 9.65481 2.29102 9.99999C2.29102 14.2572 5.74215 17.7083 9.99935 17.7083C10.3445 17.7083 10.6243 17.9881 10.6243 18.3333C10.6243 18.6785 10.3445 18.9583 9.99935 18.9583C5.0518 18.9583 1.04102 14.9475 1.04102 9.99999C1.04102 9.65481 1.32084 9.37499 1.66602 9.37499Z" fill="#2563EB"/>
<ellipse opacity="0.4" cx="15" cy="16.6667" rx="2.5" ry="1.66667" fill="#2563EB"/>
</svg>
